<svg xmlns="http://www.w3.org/2000/svg" width="1450" height="1350" viewBox="0 0 1450 1350"><rect width="100%" height="100%" fill="white"/><rect x="450" y="30" width="950" height="1260" fill="white" stroke="#424550" stroke-width="3"/><text x="925" y="70" font-family="Arial" font-size="32" font-weight="700" text-anchor="middle" dominant-baseline="middle">Doce Sabor — operação e gestão</text><ellipse cx="170.0" cy="166.0" rx="20.0" ry="20.0" fill="white" stroke="#424550" stroke-width="3"/><polyline points="170,186 170,242" fill="none" stroke="#656873" stroke-width="3"/><polyline points="130,210 210,210" fill="none" stroke="#656873" stroke-width="3"/><polyline points="138,280 170,242 202,280" fill="none" stroke="#656873" stroke-width="3"/><text x="170" y="315" font-family="Arial" font-size="28" font-weight="700" text-anchor="middle" dominant-baseline="middle">Operador</text><ellipse cx="170.0" cy="446.0" rx="20.0" ry="20.0" fill="white" stroke="#424550" stroke-width="3"/><polyline points="170,466 170,522" fill="none" stroke="#656873" stroke-width="3"/><polyline points="130,490 210,490" fill="none" stroke="#656873" stroke-width="3"/><polyline points="138,560 170,522 202,560" fill="none" stroke="#656873" stroke-width="3"/><text x="170" y="595" font-family="Arial" font-size="28" font-weight="700" text-anchor="middle" dominant-baseline="middle">Estoquista</text><ellipse cx="170.0" cy="756.0" rx="20.0" ry="20.0" fill="white" stroke="#424550" stroke-width="3"/><polyline points="170,776 170,832" fill="none" stroke="#656873" stroke-width="3"/><polyline points="130,800 210,800" fill="none" stroke="#656873" stroke-width="3"/><polyline points="138,870 170,832 202,870" fill="none" stroke="#656873" stroke-width="3"/><text x="170" y="905" font-family="Arial" font-size="28" font-weight="700" text-anchor="middle" dominant-baseline="middle">Gerente</text><ellipse cx="170.0" cy="1076.0" rx="20.0" ry="20.0" fill="white" stroke="#424550" stroke-width="3"/><polyline points="170,1096 170,1152" fill="none" stroke="#656873" stroke-width="3"/><polyline points="130,1120 210,1120" fill="none" stroke="#656873" stroke-width="3"/><polyline points="138,1190 170,1152 202,1190" fill="none" stroke="#656873" stroke-width="3"/><text x="170" y="1225" font-family="Arial" font-size="28" font-weight="700" text-anchor="middle" dominant-baseline="middle">Administrador</text><ellipse cx="990.0" cy="190.0" rx="360.0" ry="52.0" fill="white" stroke="#424550" stroke-width="3"/><text x="990" y="190.0" font-family="Arial" font-size="29" font-weight="400" text-anchor="middle" dominant-baseline="middle">Registrar venda</text><ellipse cx="990.0" cy="350.0" rx="360.0" ry="52.0" fill="white" stroke="#424550" stroke-width="3"/><text x="990" y="350.0" font-family="Arial" font-size="29" font-weight="400" text-anchor="middle" dominant-baseline="middle">Consultar histórico permitido</text><ellipse cx="990.0" cy="510.0" rx="360.0" ry="52.0" fill="white" stroke="#424550" stroke-width="3"/><text x="990" y="510.0" font-family="Arial" font-size="29" font-weight="400" text-anchor="middle" dominant-baseline="middle">Receber lote</text><ellipse cx="990.0" cy="700.0" rx="360.0" ry="52.0" fill="white" stroke="#424550" stroke-width="3"/><text x="990" y="700.0" font-family="Arial" font-size="29" font-weight="400" text-anchor="middle" dominant-baseline="middle">Gerenciar catálogo</text><ellipse cx="990.0" cy="870.0" rx="360.0" ry="52.0" fill="white" stroke="#424550" stroke-width="3"/><text x="990" y="870.0" font-family="Arial" font-size="29" font-weight="400" text-anchor="middle" dominant-baseline="middle">Confirmar descarte com motivo</text><ellipse cx="990.0" cy="1040.0" rx="360.0" ry="52.0" fill="white" stroke="#424550" stroke-width="3"/><text x="990" y="1040.0" font-family="Arial" font-size="29" font-weight="400" text-anchor="middle" dominant-baseline="middle">Consultar relatórios e auditoria</text><ellipse cx="990.0" cy="1200.0" rx="360.0" ry="52.0" fill="white" stroke="#424550" stroke-width="3"/><text x="990" y="1200.0" font-family="Arial" font-size="29" font-weight="400" text-anchor="middle" dominant-baseline="middle">Gerenciar contas e permissões</text><polyline points="210,210 630,190" fill="none" stroke="#656873" stroke-width="3"/><polyline points="210,210 630,350" fill="none" stroke="#656873" stroke-width="3"/><polyline points="210,490 630,510" fill="none" stroke="#656873" stroke-width="3"/><polyline points="210,800 630,700" fill="none" stroke="#656873" stroke-width="3"/><polyline points="210,800 630,870" fill="none" stroke="#656873" stroke-width="3"/><polyline points="210,800 630,1040" fill="none" stroke="#656873" stroke-width="3"/><polyline points="210,1120 630,1200" fill="none" stroke="#656873" stroke-width="3"/><polyline points="100,1080 70,1080 70,940 170,940 170,920" fill="none" stroke="#656873" stroke-width="3"/><polyline points="157,942 170,920 183,942 157,942" fill="none" stroke="#656873" stroke-width="3"/><text x="355" y="990" font-family="Arial" font-size="23" font-weight="400" text-anchor="middle" dominant-baseline="middle">herda</text><polyline points="100,775 35,775 35,620 170,620 170,605" fill="none" stroke="#656873" stroke-width="3"/><polyline points="157,627 170,605 183,627 157,627" fill="none" stroke="#656873" stroke-width="3"/><polyline points="100,755 15,755 15,335 170,335 170,325" fill="none" stroke="#656873" stroke-width="3"/><polyline points="157,347 170,325 183,347 157,347" fill="none" stroke="#656873" stroke-width="3"/><text x="920" y="1320" font-family="Arial" font-size="25" font-weight="400" text-anchor="middle" dominant-baseline="middle">Permissões adicionais são descritas na matriz de acesso.</text></svg>